<svg class="active" id="Layer_1" data-name="Layer 1" xmlns="http://www.w3.org/2000/svg" viewBox="0 0 346.77 182.11"
    width="346.7699890136719" height="182.11000061035156">
    <title>Blaže Logo White</title>
    <path class="cls-1 svg-elem-1"
        d="M517.33,656c.6.15,1.21.31,1.82.45A18.34,18.34,0,0,1,533,668.64a39.17,39.17,0,0,1,2,9.3c.69,6.09.37,12.2.46,18.31,0,1.92,0,3.83-.08,5.75,0,.4,0,.8.06,1.35l3.84-.17c2.3-.11,4.6-.2,6.89-.32,2.85-.14,5.7-.3,8.55-.43,2.34-.11,4.67-.2,7-.28,2.78-.09,5.55-.19,8.33-.24,4.4-.07,8.81-.18,13.21-.13,3.13,0,6.26.22,9.38.46a149.13,149.13,0,0,1,15.89,2.06A67.34,67.34,0,0,1,623,709.1a29.65,29.65,0,0,1,6.27,4,18.28,18.28,0,0,1,2.18,26.49,28.47,28.47,0,0,1-8.24,6.39c-2.26,1.24-4.56,2.41-6.84,3.62-.27.14-.52.32-.86.53,1,.48,1.89.88,2.76,1.34a24.3,24.3,0,0,1,9.31,9,66.46,66.46,0,0,1,5,10.55c2.54,6.27,5.14,12.51,7.71,18.76.21.51.39,1,.62,1.66-.44,0-.78.1-1.11.1-5.57,0-11.13,0-16.7,0-3.13,0-6.27-.13-9.4-.14-2,0-4,.12-6.06.15a5.59,5.59,0,0,1-5.6-3.67c-2.36-5.57-4.67-11.15-7-16.74a28,28,0,0,0-4.63-8,13.67,13.67,0,0,0-8-4.51c-3.7-.69-7.34-.15-11,.54a1.75,1.75,0,0,0-.4.25v25c.07,1.31.1,2.62.06,3.92-.07,2.71-1.92,3.48-3.86,3.42s-3.81-.31-5.72-.46-4.05-.39-6.08-.45c-2.23-.07-4.48-.06-6.71.08-2.42.16-4.83.57-7.25.76a19.79,19.79,0,0,1-3.69-.09,3.16,3.16,0,0,1-2.82-2.84,8.43,8.43,0,0,1-.13-1.67q0-10.56,0-21.11,0-28.2.08-56.4a5.92,5.92,0,0,0-.12-1.44,298.33,298.33,0,0,1-8.83,31.94,311.4,311.4,0,0,1-12.55,30.84l8.55.56a5.29,5.29,0,0,1,.1.73q0,7.44,0,14.87a13.83,13.83,0,0,1-.18,2.14,1.68,1.68,0,0,1-.45.81,4.77,4.77,0,0,1-3.5,1.59c-3.11.06-6.22.13-9.34.16-1,0-2.07-.13-3.1-.15a5.41,5.41,0,0,0-4.3,1.77c-1.64,1.85-3.2,3.78-4.76,5.7-3.61,4.42-7.19,8.87-10.79,13.3a2.37,2.37,0,0,0-.54,1.65c0,3.8.05,7.6,0,11.39a17.88,17.88,0,0,1-.57,4.13c-1.06,4.05-3.87,6.43-7.76,7.58a28.84,28.84,0,0,1-10.43.85,34.08,34.08,0,0,1-6.37-1c-.31-.08-.61-.21-.92-.27-.5-.1-.76-.37-.65-.88-1.87.3-3.67.71-5.48.83a19.29,19.29,0,0,1-7.36-.59,15.36,15.36,0,0,1-8.36-6.64,29.85,29.85,0,0,1-3.61-9.47c-.13-.56-.27-1.13-.4-1.69h-.26q-1.94,4.86-3.88,9.73H417c-3-7.7-9-24-9-24h10.51s3.24,11.06,4.87,16.28l.27,0c1.57-5.17,4.74-15.25,4.74-15.25h10.11c-.94,2.81-2.15,5.45-3.17,8.23,1.3,1,1.48,2.53,1.9,3.95.63,2.16,1.16,4.35,1.94,6.45a15.91,15.91,0,0,0,4,6.1,10.75,10.75,0,0,0,10,2.95,15,15,0,0,0,5.72-2.4,34.23,34.23,0,0,1,3.58-1.95c.27-.15.52-.35.85-.57-.14-.14-.22-.29-.33-.33a9,9,0,0,1-5.6-7,16.59,16.59,0,0,1,.07-8.54c2-6.56,7.91-8.57,13.21-7.07a7.49,7.49,0,0,1,3.76,2.49c.25.32.52.63.89,1.07.16-1.2.3-2.24.43-3.24a54.49,54.49,0,0,1,9.32,0l-.13,2.83c4-4.54,7.47-9.43,11.24-14.18l-.86-1.75H433V703h86v20H469.59a17.8,17.8,0,0,0-.24,2.13c0,2.67.1,5.34.17,8a2.36,2.36,0,0,0,1.05,1.94,6.52,6.52,0,0,0,4,1.39q15,0,29.91.09c1.88,0,3.75.14,5.63.24a4.9,4.9,0,0,1,.89.24v19H473.78a8.78,8.78,0,0,0-1.77.17,2.7,2.7,0,0,0-2.34,2.75c0,1.11.1,2.22.1,3.33,0,1.59,0,3.18-.07,4.77,0,1.11,0,2.22,0,3.43a16.35,16.35,0,0,0,1.61.32c1.18.11,2.37.24,3.56.25q15.19,0,30.4,0a7.59,7.59,0,0,0,2.22-.32,4.74,4.74,0,0,0,2.81-2.91c1.66-3.66,3.31-7.32,4.91-11q4.35-10.1,7.73-20.55a187,187,0,0,0,6.58-26.48,135.29,135.29,0,0,0,1.72-13.59c.16-2.42.41-4.84.44-7.26a52.38,52.38,0,0,0-.84-9.84c-.45-2.47-1-4.92-1.58-7.35a15,15,0,0,0-5.58-8.65,13.14,13.14,0,0,0-11.29-2.2,21.77,21.77,0,0,0-7.23,3.55,108.3,108.3,0,0,0-11.53,9.41c-2.14,1.92-4.3,3.83-6.43,5.77-.74.68-1.88,1.88-2.56,2.64-.51.58-1,1.15-1.51,1.77-1,1.25-2.27,1.47-3.87,1.36a18.1,18.1,0,0,1,0-3,3.36,3.36,0,0,1,1-1.57c2-2,4-3.93,6-6,3-3,6-6,9.2-8.84,3.75-3.31,7.6-6.49,12.25-8.39a20.85,20.85,0,0,1,5.38-1.48,1.13,1.13,0,0,0,.4-.19ZM572,720.12v21.12c.46,0,.85,0,1.24-.08,3.51-.45,7-.87,10.54-1.39s6.78-1,10.13-1.7c6-1.29,7.57-7.19,5.77-11.43a7.43,7.43,0,0,0-6.11-4.64c-4.29-.6-8.61-1-12.93-1.41-2-.21-4-.34-6.07-.46C573.74,720.08,572.91,720.12,572,720.12Zm-104.83,96c.18,1.38.26,2.53.5,3.65a3.38,3.38,0,0,0,1.93,2.45,1.28,1.28,0,0,0,1.62-.2,29.63,29.63,0,0,1,2.64-2.23,2.54,2.54,0,0,0,1.1-2,11.41,11.41,0,0,0-.71-5.73,3.44,3.44,0,0,0-3.57-2.07,3.09,3.09,0,0,0-2.88,2.45C467.47,813.74,467.35,815.05,467.17,816.14Zm-.4,15.73.09.27c.43,0,.86,0,1.28,0,.63,0,1.27-.1,1.9-.2,3.81-.62,6-3.72,5.3-7.72A45.54,45.54,0,0,1,466.77,831.87Z"
        transform="translate(-341.23 -656)"></path>
    <path class="cls-1 svg-elem-2"
        d="M688,791.84c-.44,0-.88-.06-1.31-.06-5,0-10.08,0-15.11,0-5.39,0-10.78-.11-16.18-.14a2.84,2.84,0,0,1-2.36-1.17,5.54,5.54,0,0,1-1.33-4.66,3.92,3.92,0,0,0,0-.84q0-14.75.08-29.5,0-15.65,0-31.29c0-5.56-.07-11.11-.06-16.67a11.36,11.36,0,0,1,.35-2.58,3.24,3.24,0,0,1,2.34-2.4,9,9,0,0,1,3.57-.32,6.25,6.25,0,0,0,1,.1l21.7.08c2.44,0,4.87,0,7.31-.06Z"
        transform="translate(-341.23 -656)"></path>
    <path class="cls-1 svg-elem-3"
        d="M341.23,790l.23-86.28c27.5-.06,55,.15,82.54,0V723c-3.86,0-7.72,0-11.58,0h-35a146.1,146.1,0,0,0-.07,15h36.19c.26.94.34,17.73.11,19.45-.28,0-.57.08-.87.08-1.74,0-3.49,0-5.24,0-7.25,0-14.49.11-21.74.14-1.71,0-3.41-.1-5.11-.14a4.8,4.8,0,0,0-.93,0c-2.31.42-3,1.39-3.14,3.53-.12,1.61.1,3.24.1,4.87,0,2.59-.07,5.18-.11,7.78,0,0,0,.08,0,.11,0,2.95,0,5.9,0,8.85,0,.93.13,1.85.13,2.78a12,12,0,0,1-.19,2.07,2.85,2.85,0,0,1-2.64,2.53,5.44,5.44,0,0,1-.58,0c-3.33,0-6.67-.07-10-.07-4.15,0-8.3,0-12.45.06h-9.08A4.38,4.38,0,0,1,341.23,790Z"
        transform="translate(-341.23 -656)"></path>
    <path class="cls-1 svg-elem-4"
        d="M373,828H361.09l-9.78-21.23a10.44,10.44,0,0,0-.3,3.5c0,1.18,0,2.37,0,3.55V828h-8.87c-.23-.84-.33-29-.09-31h12c1.61,3.42,3.23,6.88,4.87,10.34l4.84,10.18.24-.06V797.14a51.58,51.58,0,0,1,8.89-.14C373.12,797.84,373.19,826.24,373,828Z"
        transform="translate(-341.23 -656)"></path>
    <path class="cls-1 svg-elem-5"
        d="M405.34,828h-8.83l-.41-2.9-1.26.94a11.66,11.66,0,0,1-7.88,2.67c-2.7-.13-5.1-.92-6.83-3.15-2.16-2.8-2.07-8.27,2.2-10.44a19.76,19.76,0,0,1,8.08-2c1.87-.1,3.73-.16,5.65-.25a2.33,2.33,0,0,0-1.15-2.61,5.94,5.94,0,0,0-2.55-.92,15.83,15.83,0,0,0-8.13,1.28c-.55.22-1.1.46-1.82.77l-.33-5.93c1.47-.33,2.85-.69,4.25-.94a37.7,37.7,0,0,1,9.43-.43,15.48,15.48,0,0,1,5.22,1.22,6.65,6.65,0,0,1,3.91,5.11,14.77,14.77,0,0,1,.24,2.74c0,3.72,0,7.44,0,11.16C405.16,825.55,405.27,826.74,405.34,828Zm-9.26-11.21a15.22,15.22,0,0,0-5.42.47,4.47,4.47,0,0,0-2.3,1.43,2.94,2.94,0,0,0,.66,4.37c1.88.94,5.68.6,6.69-2.64A8.23,8.23,0,0,0,396.08,816.79Z"
        transform="translate(-341.23 -656)"></path>
    <path class="cls-1 svg-elem-6"
        d="M516.07,828h-8.72l-.42-2.91c-.49.36-.87.63-1.24.92a11.85,11.85,0,0,1-8,2.7,8.7,8.7,0,0,1-6.41-2.76c-2.57-2.88-2.49-8.25,1.5-10.62a14.21,14.21,0,0,1,5.77-1.87c2.21-.25,4.45-.32,6.67-.46.52,0,1,0,1.52,0a2.11,2.11,0,0,0-.83-2.56,6.88,6.88,0,0,0-4-1.16,17.39,17.39,0,0,0-7.54,1.66l-1.1.49c-.41-1.94-.14-3.86-.49-5.84.95-.25,1.82-.52,2.7-.7a34.44,34.44,0,0,1,13.79-.33,10.79,10.79,0,0,1,3,1.08,6.75,6.75,0,0,1,3.51,6.14c.07,2,0,4.08,0,6.12C515.92,821.24,516,824.59,516.07,828Zm-9.19-11.19a13.61,13.61,0,0,0-5.59.53,5.25,5.25,0,0,0-1.66.9,3,3,0,0,0,.18,4.81,4.87,4.87,0,0,0,6.66-2.46A7.88,7.88,0,0,0,506.88,816.81Z"
        transform="translate(-341.23 -656)"></path>
    <path class="cls-1 svg-elem-7"
        d="M569.79,819H552.5a4.48,4.48,0,0,0,2.42,3.87,9.52,9.52,0,0,0,6,.88c2-.34,4-.93,6-1.42.34-.08.67-.2,1.14-.35l.21,5.64a3.56,3.56,0,0,1-.73.28c-1.85.33-3.68.72-5.54.93a40.08,40.08,0,0,1-5,.23,18.53,18.53,0,0,1-7.11-1.42,10.8,10.8,0,0,1-5.54-5.07,13.22,13.22,0,0,1-1.26-7.11,11.55,11.55,0,0,1,2.53-6.48,12,12,0,0,1,7.19-4.23,18.31,18.31,0,0,1,8.88.37,11.28,11.28,0,0,1,8.12,10.44C569.82,816.66,569.79,817.77,569.79,819Zm-9.11-5.11a6.5,6.5,0,0,0-.42-2.9,3.47,3.47,0,0,0-2.31-2.06c-3.3-.9-6.13,1.7-5.54,5.47Z"
        transform="translate(-341.23 -656)"></path>
    <path class="cls-1 svg-elem-8"
        d="M539.87,822.66c.09,1.89.18,3.64.28,5.51l-1.34.21a27.6,27.6,0,0,1-7.86.16,10,10,0,0,1-4-1.47,5.65,5.65,0,0,1-2.7-5c0-3.44.76-10.32.76-10.32V810h-5.22c-.09-2,0-4,0-6H524v-4.33c3.51-.86,6.77-1.7,10.2-2.58.16,2.53,0,4.94.12,7.46,1.79.18,3.57,0,5.33.11a18,18,0,0,1,.05,5.34h-5.37c0,.78-.06,1.17-.06,1.55,0,2.64.1,5.29,0,7.92-.18,3.34,2,3.73,4.21,3.51A11.87,11.87,0,0,0,539.87,822.66Z"
        transform="translate(-341.23 -656)"></path>
    <path class="cls-1 svg-elem-9" d="M452,828H442V805h10Z" transform="translate(-341.23 -656)"></path>
    <path class="cls-1 svg-elem-10" d="M442,794h10.36c.07,2.32.06,4.62,0,7H442Z" transform="translate(-341.23 -656)">
    </path>
    <defs>
        <style>
            .cls-1 {
                fill: #fff;
            }

            svg {
                background-color: #005f85;
            }

            svg .svg-elem-1 {
                fill: transparent;
                -webkit-transition: fill 0.5s cubic-bezier(0.25, 0.46, 0.45, 0.94) 0.3s;
                transition: fill 0.5s cubic-bezier(0.25, 0.46, 0.45, 0.94) 0.3s;
            }

            svg.active .svg-elem-1 {
                fill: rgb(255, 255, 255);
            }

            svg .svg-elem-2 {
                fill: transparent;
                -webkit-transition: fill 0.5s cubic-bezier(0.25, 0.46, 0.45, 0.94) 0.4s;
                transition: fill 0.5s cubic-bezier(0.25, 0.46, 0.45, 0.94) 0.4s;
            }

            svg.active .svg-elem-2 {
                fill: rgb(255, 255, 255);
            }

            svg .svg-elem-3 {
                fill: transparent;
                -webkit-transition: fill 0.5s cubic-bezier(0.25, 0.46, 0.45, 0.94) 0.5s;
                transition: fill 0.5s cubic-bezier(0.25, 0.46, 0.45, 0.94) 0.5s;
            }

            svg.active .svg-elem-3 {
                fill: rgb(255, 255, 255);
            }

            svg .svg-elem-4 {
                fill: transparent;
                -webkit-transition: fill 0.5s cubic-bezier(0.25, 0.46, 0.45, 0.94) 0.6000000000000001s;
                transition: fill 0.5s cubic-bezier(0.25, 0.46, 0.45, 0.94) 0.6000000000000001s;
            }

            svg.active .svg-elem-4 {
                fill: rgb(255, 255, 255);
            }

            svg .svg-elem-5 {
                fill: transparent;
                -webkit-transition: fill 0.5s cubic-bezier(0.25, 0.46, 0.45, 0.94) 0.7s;
                transition: fill 0.5s cubic-bezier(0.25, 0.46, 0.45, 0.94) 0.7s;
            }

            svg.active .svg-elem-5 {
                fill: rgb(255, 255, 255);
            }

            svg .svg-elem-6 {
                fill: transparent;
                -webkit-transition: fill 0.5s cubic-bezier(0.25, 0.46, 0.45, 0.94) 0.8s;
                transition: fill 0.5s cubic-bezier(0.25, 0.46, 0.45, 0.94) 0.8s;
            }

            svg.active .svg-elem-6 {
                fill: rgb(255, 255, 255);
            }

            svg .svg-elem-7 {
                fill: transparent;
                -webkit-transition: fill 0.5s cubic-bezier(0.25, 0.46, 0.45, 0.94) 0.9000000000000001s;
                transition: fill 0.5s cubic-bezier(0.25, 0.46, 0.45, 0.94) 0.9000000000000001s;
            }

            svg.active .svg-elem-7 {
                fill: rgb(255, 255, 255);
            }

            svg .svg-elem-8 {
                fill: transparent;
                -webkit-transition: fill 0.5s cubic-bezier(0.25, 0.46, 0.45, 0.94) 1s;
                transition: fill 0.5s cubic-bezier(0.25, 0.46, 0.45, 0.94) 1s;
            }

            svg.active .svg-elem-8 {
                fill: rgb(255, 255, 255);
            }

            svg .svg-elem-9 {
                fill: transparent;
                -webkit-transition: fill 0.5s cubic-bezier(0.25, 0.46, 0.45, 0.94) 1.1s;
                transition: fill 0.5s cubic-bezier(0.25, 0.46, 0.45, 0.94) 1.1s;
            }

            svg.active .svg-elem-9 {
                fill: rgb(255, 255, 255);
            }

            svg .svg-elem-10 {
                fill: transparent;
                -webkit-transition: fill 0.5s cubic-bezier(0.25, 0.46, 0.45, 0.94) 1.2s;
                transition: fill 0.5s cubic-bezier(0.25, 0.46, 0.45, 0.94) 1.2s;
            }

            svg.active .svg-elem-10 {
                fill: rgb(255, 255, 255);
            }
        </style>
    </defs>
</svg>